<mxfile host="app.diagrams.net" modified="2024-04-24T22:10:27.999Z" agent="Mozilla/5.0 (Windows NT 10.0; Win64; x64) AppleWebKit/537.36 (KHTML, like Gecko) Chrome/121.0.0.0 Safari/537.36 OPR/107.0.0.0" etag="QLIS_0Wbli03pqPWVzJS" version="24.2.5" type="device">
  <diagram name="PÃ¡gina-1" id="3kCyfseND3bOanbbsOWs">
    <mxGraphModel dx="803" dy="706" grid="1" gridSize="10" guides="1" tooltips="1" connect="1" arrows="1" fold="1" page="1" pageScale="1" pageWidth="827" pageHeight="1169" math="0" shadow="0">
      <root>
        <mxCell id="0" />
        <mxCell id="1" parent="0" />
        <mxCell id="wAscsWPco3HNGKzt4rPp-8" style="edgeStyle=orthogonalEdgeStyle;rounded=0;orthogonalLoop=1;jettySize=auto;html=1;exitX=0.5;exitY=1;exitDx=0;exitDy=0;entryX=0.5;entryY=0;entryDx=0;entryDy=0;endArrow=none;endFill=0;shape=link;" edge="1" parent="1" source="wAscsWPco3HNGKzt4rPp-1" target="wAscsWPco3HNGKzt4rPp-6">
          <mxGeometry relative="1" as="geometry" />
        </mxCell>
        <mxCell id="wAscsWPco3HNGKzt4rPp-1" value="Usuarios" style="rounded=0;whiteSpace=wrap;html=1;" vertex="1" parent="1">
          <mxGeometry x="130" y="120" width="80" height="40" as="geometry" />
        </mxCell>
        <mxCell id="wAscsWPco3HNGKzt4rPp-2" value="Regulares" style="rounded=0;whiteSpace=wrap;html=1;" vertex="1" parent="1">
          <mxGeometry x="130" y="360" width="80" height="40" as="geometry" />
        </mxCell>
        <mxCell id="wAscsWPco3HNGKzt4rPp-3" value="Socios" style="rounded=0;whiteSpace=wrap;html=1;" vertex="1" parent="1">
          <mxGeometry x="220" y="360" width="80" height="40" as="geometry" />
        </mxCell>
        <mxCell id="wAscsWPco3HNGKzt4rPp-99" style="edgeStyle=orthogonalEdgeStyle;rounded=0;orthogonalLoop=1;jettySize=auto;html=1;exitX=0.5;exitY=1;exitDx=0;exitDy=0;entryX=0.5;entryY=0;entryDx=0;entryDy=0;endArrow=none;endFill=0;" edge="1" parent="1" source="wAscsWPco3HNGKzt4rPp-4" target="wAscsWPco3HNGKzt4rPp-97">
          <mxGeometry relative="1" as="geometry" />
        </mxCell>
        <mxCell id="wAscsWPco3HNGKzt4rPp-4" value="VIPs" style="rounded=0;whiteSpace=wrap;html=1;" vertex="1" parent="1">
          <mxGeometry x="310" y="360" width="80" height="40" as="geometry" />
        </mxCell>
        <mxCell id="wAscsWPco3HNGKzt4rPp-5" value="Invitados" style="rounded=0;whiteSpace=wrap;html=1;" vertex="1" parent="1">
          <mxGeometry x="40" y="240" width="80" height="40" as="geometry" />
        </mxCell>
        <mxCell id="wAscsWPco3HNGKzt4rPp-11" style="rounded=0;orthogonalLoop=1;jettySize=auto;html=1;exitX=0.5;exitY=1;exitDx=0;exitDy=0;entryX=0.5;entryY=0;entryDx=0;entryDy=0;endArrow=none;endFill=0;" edge="1" parent="1" source="wAscsWPco3HNGKzt4rPp-24" target="wAscsWPco3HNGKzt4rPp-3">
          <mxGeometry relative="1" as="geometry">
            <mxPoint x="394.0010678118654" y="327.0710678118654" as="sourcePoint" />
            <mxPoint x="260" y="360" as="targetPoint" />
          </mxGeometry>
        </mxCell>
        <mxCell id="wAscsWPco3HNGKzt4rPp-12" style="rounded=0;orthogonalLoop=1;jettySize=auto;html=1;exitX=1;exitY=0.5;exitDx=0;exitDy=0;entryX=0.25;entryY=0;entryDx=0;entryDy=0;endArrow=none;endFill=0;" edge="1" parent="1" source="wAscsWPco3HNGKzt4rPp-24" target="wAscsWPco3HNGKzt4rPp-4">
          <mxGeometry relative="1" as="geometry">
            <mxPoint x="396.93" y="320" as="sourcePoint" />
            <mxPoint x="330" y="360" as="targetPoint" />
          </mxGeometry>
        </mxCell>
        <mxCell id="wAscsWPco3HNGKzt4rPp-22" style="rounded=0;orthogonalLoop=1;jettySize=auto;html=1;exitX=1;exitY=0.5;exitDx=0;exitDy=0;entryX=0.5;entryY=0;entryDx=0;entryDy=0;endArrow=none;endFill=0;" edge="1" parent="1" source="wAscsWPco3HNGKzt4rPp-6" target="wAscsWPco3HNGKzt4rPp-21">
          <mxGeometry relative="1" as="geometry" />
        </mxCell>
        <mxCell id="wAscsWPco3HNGKzt4rPp-110" style="rounded=0;orthogonalLoop=1;jettySize=auto;html=1;exitX=0;exitY=0.5;exitDx=0;exitDy=0;entryX=0.5;entryY=0;entryDx=0;entryDy=0;endArrow=none;endFill=0;" edge="1" parent="1" source="wAscsWPco3HNGKzt4rPp-6" target="wAscsWPco3HNGKzt4rPp-5">
          <mxGeometry relative="1" as="geometry" />
        </mxCell>
        <mxCell id="wAscsWPco3HNGKzt4rPp-111" style="rounded=0;orthogonalLoop=1;jettySize=auto;html=1;exitX=0.5;exitY=1;exitDx=0;exitDy=0;entryX=0.5;entryY=0;entryDx=0;entryDy=0;endArrow=none;endFill=0;" edge="1" parent="1" source="wAscsWPco3HNGKzt4rPp-6" target="wAscsWPco3HNGKzt4rPp-108">
          <mxGeometry relative="1" as="geometry" />
        </mxCell>
        <mxCell id="wAscsWPco3HNGKzt4rPp-6" value="D" style="ellipse;whiteSpace=wrap;html=1;" vertex="1" parent="1">
          <mxGeometry x="160" y="190" width="20" height="20" as="geometry" />
        </mxCell>
        <mxCell id="wAscsWPco3HNGKzt4rPp-73" style="edgeStyle=orthogonalEdgeStyle;rounded=0;orthogonalLoop=1;jettySize=auto;html=1;exitX=0.5;exitY=1;exitDx=0;exitDy=0;entryX=0.5;entryY=0;entryDx=0;entryDy=0;endArrow=none;endFill=0;" edge="1" parent="1" source="wAscsWPco3HNGKzt4rPp-14" target="wAscsWPco3HNGKzt4rPp-49">
          <mxGeometry relative="1" as="geometry" />
        </mxCell>
        <mxCell id="wAscsWPco3HNGKzt4rPp-14" value="Partidos" style="rounded=0;whiteSpace=wrap;html=1;" vertex="1" parent="1">
          <mxGeometry x="480" y="240" width="80" height="40" as="geometry" />
        </mxCell>
        <mxCell id="wAscsWPco3HNGKzt4rPp-15" value="&lt;div&gt;&lt;u&gt;fecha&lt;/u&gt;&lt;/div&gt;&lt;span style=&quot;background-color: initial;&quot;&gt;hora&lt;/span&gt;&lt;div&gt;rival&lt;/div&gt;&lt;div&gt;restulado&lt;/div&gt;&lt;div&gt;detalles&lt;/div&gt;" style="ellipse;whiteSpace=wrap;html=1;" vertex="1" parent="1">
          <mxGeometry x="520" y="170" width="70" height="80" as="geometry" />
        </mxCell>
        <mxCell id="wAscsWPco3HNGKzt4rPp-20" style="edgeStyle=orthogonalEdgeStyle;rounded=0;orthogonalLoop=1;jettySize=auto;html=1;exitX=1;exitY=0.5;exitDx=0;exitDy=0;entryX=0;entryY=0.5;entryDx=0;entryDy=0;endArrow=none;endFill=0;" edge="1" parent="1" source="wAscsWPco3HNGKzt4rPp-18" target="wAscsWPco3HNGKzt4rPp-14">
          <mxGeometry relative="1" as="geometry">
            <mxPoint x="430" y="260" as="sourcePoint" />
          </mxGeometry>
        </mxCell>
        <mxCell id="wAscsWPco3HNGKzt4rPp-18" value="compra_entrada" style="rhombus;whiteSpace=wrap;html=1;" vertex="1" parent="1">
          <mxGeometry x="340" y="220" width="100" height="80" as="geometry" />
        </mxCell>
        <mxCell id="wAscsWPco3HNGKzt4rPp-25" style="edgeStyle=orthogonalEdgeStyle;rounded=0;orthogonalLoop=1;jettySize=auto;html=1;exitX=1;exitY=0.5;exitDx=0;exitDy=0;entryX=0;entryY=0.5;entryDx=0;entryDy=0;endArrow=none;endFill=0;" edge="1" parent="1" source="wAscsWPco3HNGKzt4rPp-21" target="wAscsWPco3HNGKzt4rPp-18">
          <mxGeometry relative="1" as="geometry">
            <mxPoint x="350" y="260" as="targetPoint" />
          </mxGeometry>
        </mxCell>
        <mxCell id="wAscsWPco3HNGKzt4rPp-21" value="Registrados" style="rounded=0;whiteSpace=wrap;html=1;" vertex="1" parent="1">
          <mxGeometry x="220" y="240" width="80" height="40" as="geometry" />
        </mxCell>
        <mxCell id="wAscsWPco3HNGKzt4rPp-23" style="edgeStyle=orthogonalEdgeStyle;rounded=0;orthogonalLoop=1;jettySize=auto;html=1;entryX=0.5;entryY=0;entryDx=0;entryDy=0;endArrow=none;endFill=0;shape=link;exitX=0.5;exitY=1;exitDx=0;exitDy=0;" edge="1" parent="1" target="wAscsWPco3HNGKzt4rPp-24" source="wAscsWPco3HNGKzt4rPp-21">
          <mxGeometry relative="1" as="geometry">
            <mxPoint x="280" y="300" as="sourcePoint" />
          </mxGeometry>
        </mxCell>
        <mxCell id="wAscsWPco3HNGKzt4rPp-30" style="rounded=0;orthogonalLoop=1;jettySize=auto;html=1;exitX=0;exitY=0.5;exitDx=0;exitDy=0;entryX=0.75;entryY=0;entryDx=0;entryDy=0;endArrow=none;endFill=0;" edge="1" parent="1" source="wAscsWPco3HNGKzt4rPp-24" target="wAscsWPco3HNGKzt4rPp-2">
          <mxGeometry relative="1" as="geometry" />
        </mxCell>
        <mxCell id="wAscsWPco3HNGKzt4rPp-24" value="D" style="ellipse;whiteSpace=wrap;html=1;" vertex="1" parent="1">
          <mxGeometry x="250" y="310" width="20" height="20" as="geometry" />
        </mxCell>
        <mxCell id="wAscsWPco3HNGKzt4rPp-27" value="0:N" style="text;html=1;align=center;verticalAlign=middle;whiteSpace=wrap;rounded=0;" vertex="1" parent="1">
          <mxGeometry x="450" y="240" width="30" height="20" as="geometry" />
        </mxCell>
        <mxCell id="wAscsWPco3HNGKzt4rPp-28" value="0:M" style="text;html=1;align=center;verticalAlign=middle;whiteSpace=wrap;rounded=0;" vertex="1" parent="1">
          <mxGeometry x="300" y="240" width="30" height="20" as="geometry" />
        </mxCell>
        <mxCell id="wAscsWPco3HNGKzt4rPp-29" value="&lt;div&gt;cantidad&lt;/div&gt;" style="ellipse;whiteSpace=wrap;html=1;" vertex="1" parent="1">
          <mxGeometry x="390" y="270" width="60" height="30" as="geometry" />
        </mxCell>
        <mxCell id="wAscsWPco3HNGKzt4rPp-77" style="edgeStyle=orthogonalEdgeStyle;rounded=0;orthogonalLoop=1;jettySize=auto;html=1;exitX=0.5;exitY=0;exitDx=0;exitDy=0;entryX=0.5;entryY=1;entryDx=0;entryDy=0;endArrow=none;endFill=0;" edge="1" parent="1" source="wAscsWPco3HNGKzt4rPp-31" target="wAscsWPco3HNGKzt4rPp-65">
          <mxGeometry relative="1" as="geometry" />
        </mxCell>
        <mxCell id="wAscsWPco3HNGKzt4rPp-85" style="edgeStyle=orthogonalEdgeStyle;rounded=0;orthogonalLoop=1;jettySize=auto;html=1;exitX=0;exitY=0.5;exitDx=0;exitDy=0;entryX=1;entryY=0.5;entryDx=0;entryDy=0;endArrow=none;endFill=0;" edge="1" parent="1" source="wAscsWPco3HNGKzt4rPp-31" target="wAscsWPco3HNGKzt4rPp-90">
          <mxGeometry relative="1" as="geometry">
            <mxPoint x="640" y="380" as="targetPoint" />
          </mxGeometry>
        </mxCell>
        <mxCell id="wAscsWPco3HNGKzt4rPp-31" value="" style="rounded=0;whiteSpace=wrap;html=1;" vertex="1" parent="1">
          <mxGeometry x="680" y="360" width="80" height="40" as="geometry" />
        </mxCell>
        <mxCell id="wAscsWPco3HNGKzt4rPp-78" style="edgeStyle=orthogonalEdgeStyle;rounded=0;orthogonalLoop=1;jettySize=auto;html=1;entryX=0.5;entryY=0;entryDx=0;entryDy=0;endArrow=none;endFill=0;shape=link;exitX=0.5;exitY=1;exitDx=0;exitDy=0;" edge="1" parent="1" source="wAscsWPco3HNGKzt4rPp-37" target="wAscsWPco3HNGKzt4rPp-65">
          <mxGeometry relative="1" as="geometry">
            <mxPoint x="770" y="360" as="sourcePoint" />
          </mxGeometry>
        </mxCell>
        <mxCell id="wAscsWPco3HNGKzt4rPp-34" value="" style="rounded=0;whiteSpace=wrap;html=1;" vertex="1" parent="1">
          <mxGeometry x="680" y="240" width="80" height="40" as="geometry" />
        </mxCell>
        <mxCell id="wAscsWPco3HNGKzt4rPp-37" value="Ubicaciones" style="rounded=0;whiteSpace=wrap;html=1;" vertex="1" parent="1">
          <mxGeometry x="685" y="245" width="70" height="30" as="geometry" />
        </mxCell>
        <mxCell id="wAscsWPco3HNGKzt4rPp-38" value="&lt;div&gt;&lt;span style=&quot;background-color: initial;&quot;&gt;idUbicacion&lt;/span&gt;&lt;/div&gt;&lt;div&gt;&lt;span style=&quot;background-color: initial;&quot;&gt;nombre&lt;/span&gt;&lt;br&gt;&lt;/div&gt;&lt;div&gt;descripcion&lt;/div&gt;&lt;div&gt;disponibilidad&lt;/div&gt;&lt;div&gt;capacidad&lt;/div&gt;&lt;div&gt;precio&lt;/div&gt;" style="ellipse;whiteSpace=wrap;html=1;" vertex="1" parent="1">
          <mxGeometry x="610" y="150" width="95" height="110" as="geometry" />
        </mxCell>
        <mxCell id="wAscsWPco3HNGKzt4rPp-41" value="0:N" style="text;html=1;align=center;verticalAlign=middle;whiteSpace=wrap;rounded=0;" vertex="1" parent="1">
          <mxGeometry x="650" y="360" width="30" height="20" as="geometry" />
        </mxCell>
        <mxCell id="wAscsWPco3HNGKzt4rPp-42" value="1:1" style="text;html=1;align=center;verticalAlign=middle;whiteSpace=wrap;rounded=0;" vertex="1" parent="1">
          <mxGeometry x="560" y="360" width="30" height="20" as="geometry" />
        </mxCell>
        <mxCell id="wAscsWPco3HNGKzt4rPp-46" value="" style="rhombus;whiteSpace=wrap;html=1;" vertex="1" parent="1">
          <mxGeometry x="700" y="300" width="40" height="40" as="geometry" />
        </mxCell>
        <mxCell id="wAscsWPco3HNGKzt4rPp-61" style="edgeStyle=orthogonalEdgeStyle;rounded=0;orthogonalLoop=1;jettySize=auto;html=1;exitX=0.5;exitY=1;exitDx=0;exitDy=0;endArrow=none;endFill=0;entryX=0.5;entryY=0;entryDx=0;entryDy=0;" edge="1" parent="1" source="wAscsWPco3HNGKzt4rPp-47" target="wAscsWPco3HNGKzt4rPp-68">
          <mxGeometry relative="1" as="geometry">
            <mxPoint x="440" y="350" as="targetPoint" />
          </mxGeometry>
        </mxCell>
        <mxCell id="wAscsWPco3HNGKzt4rPp-84" style="edgeStyle=orthogonalEdgeStyle;rounded=0;orthogonalLoop=1;jettySize=auto;html=1;exitX=1;exitY=0.5;exitDx=0;exitDy=0;entryX=0;entryY=0.5;entryDx=0;entryDy=0;endArrow=none;endFill=0;" edge="1" parent="1" source="wAscsWPco3HNGKzt4rPp-47" target="wAscsWPco3HNGKzt4rPp-90">
          <mxGeometry relative="1" as="geometry">
            <mxPoint x="600" y="380" as="targetPoint" />
          </mxGeometry>
        </mxCell>
        <mxCell id="wAscsWPco3HNGKzt4rPp-47" value="Canchas" style="rounded=0;whiteSpace=wrap;html=1;" vertex="1" parent="1">
          <mxGeometry x="480" y="360" width="80" height="40" as="geometry" />
        </mxCell>
        <mxCell id="wAscsWPco3HNGKzt4rPp-74" style="edgeStyle=orthogonalEdgeStyle;rounded=0;orthogonalLoop=1;jettySize=auto;html=1;exitX=0.5;exitY=1;exitDx=0;exitDy=0;entryX=0.5;entryY=0;entryDx=0;entryDy=0;endArrow=none;endFill=0;" edge="1" parent="1" source="wAscsWPco3HNGKzt4rPp-49" target="wAscsWPco3HNGKzt4rPp-47">
          <mxGeometry relative="1" as="geometry" />
        </mxCell>
        <mxCell id="wAscsWPco3HNGKzt4rPp-49" value="" style="rhombus;whiteSpace=wrap;html=1;" vertex="1" parent="1">
          <mxGeometry x="500" y="300" width="40" height="40" as="geometry" />
        </mxCell>
        <mxCell id="wAscsWPco3HNGKzt4rPp-56" value="1:1" style="text;html=1;align=center;verticalAlign=middle;whiteSpace=wrap;rounded=0;" vertex="1" parent="1">
          <mxGeometry x="520" y="340" width="30" height="20" as="geometry" />
        </mxCell>
        <mxCell id="wAscsWPco3HNGKzt4rPp-57" value="0:N" style="text;html=1;align=center;verticalAlign=middle;whiteSpace=wrap;rounded=0;" vertex="1" parent="1">
          <mxGeometry x="520" y="280" width="30" height="20" as="geometry" />
        </mxCell>
        <mxCell id="wAscsWPco3HNGKzt4rPp-58" value="1:1" style="text;html=1;align=center;verticalAlign=middle;whiteSpace=wrap;rounded=0;" vertex="1" parent="1">
          <mxGeometry x="720" y="340" width="30" height="20" as="geometry" />
        </mxCell>
        <mxCell id="wAscsWPco3HNGKzt4rPp-59" value="0:N" style="text;html=1;align=center;verticalAlign=middle;whiteSpace=wrap;rounded=0;" vertex="1" parent="1">
          <mxGeometry x="720" y="280" width="30" height="20" as="geometry" />
        </mxCell>
        <mxCell id="wAscsWPco3HNGKzt4rPp-62" style="edgeStyle=orthogonalEdgeStyle;rounded=0;orthogonalLoop=1;jettySize=auto;html=1;exitX=0.5;exitY=1;exitDx=0;exitDy=0;entryX=0.5;entryY=0;entryDx=0;entryDy=0;endArrow=none;endFill=0;shape=link;" edge="1" parent="1" source="wAscsWPco3HNGKzt4rPp-68">
          <mxGeometry relative="1" as="geometry">
            <mxPoint x="610" y="380" as="sourcePoint" />
            <mxPoint x="520" y="485" as="targetPoint" />
          </mxGeometry>
        </mxCell>
        <mxCell id="wAscsWPco3HNGKzt4rPp-63" value="0:N" style="text;html=1;align=center;verticalAlign=middle;whiteSpace=wrap;rounded=0;" vertex="1" parent="1">
          <mxGeometry x="520" y="460" width="30" height="20" as="geometry" />
        </mxCell>
        <mxCell id="wAscsWPco3HNGKzt4rPp-64" value="1:1" style="text;html=1;align=center;verticalAlign=middle;whiteSpace=wrap;rounded=0;" vertex="1" parent="1">
          <mxGeometry x="520" y="400" width="30" height="20" as="geometry" />
        </mxCell>
        <mxCell id="wAscsWPco3HNGKzt4rPp-65" value="" style="rhombus;whiteSpace=wrap;html=1;" vertex="1" parent="1">
          <mxGeometry x="705" y="305" width="30" height="30" as="geometry" />
        </mxCell>
        <mxCell id="wAscsWPco3HNGKzt4rPp-67" value="" style="rhombus;whiteSpace=wrap;html=1;" vertex="1" parent="1">
          <mxGeometry x="500" y="420" width="40" height="40" as="geometry" />
        </mxCell>
        <mxCell id="wAscsWPco3HNGKzt4rPp-68" value="" style="rhombus;whiteSpace=wrap;html=1;" vertex="1" parent="1">
          <mxGeometry x="505" y="425" width="30" height="30" as="geometry" />
        </mxCell>
        <mxCell id="wAscsWPco3HNGKzt4rPp-82" value="" style="edgeStyle=none;orthogonalLoop=1;jettySize=auto;html=1;rounded=0;endArrow=none;endFill=0;dashed=1;" edge="1" parent="1">
          <mxGeometry width="100" relative="1" as="geometry">
            <mxPoint x="630" y="175" as="sourcePoint" />
            <mxPoint x="690" y="175" as="targetPoint" />
            <Array as="points" />
          </mxGeometry>
        </mxCell>
        <mxCell id="wAscsWPco3HNGKzt4rPp-88" value="Tribunas" style="rounded=0;whiteSpace=wrap;html=1;" vertex="1" parent="1">
          <mxGeometry x="685" y="365" width="70" height="30" as="geometry" />
        </mxCell>
        <mxCell id="wAscsWPco3HNGKzt4rPp-89" value="" style="rhombus;whiteSpace=wrap;html=1;" vertex="1" parent="1">
          <mxGeometry x="600" y="360" width="40" height="40" as="geometry" />
        </mxCell>
        <mxCell id="wAscsWPco3HNGKzt4rPp-90" value="" style="rhombus;whiteSpace=wrap;html=1;" vertex="1" parent="1">
          <mxGeometry x="605" y="365" width="30" height="30" as="geometry" />
        </mxCell>
        <mxCell id="wAscsWPco3HNGKzt4rPp-92" value="&lt;div&gt;idTribuna&lt;/div&gt;&lt;div&gt;nombre&lt;/div&gt;&lt;div&gt;estado&lt;/div&gt;" style="ellipse;whiteSpace=wrap;html=1;" vertex="1" parent="1">
          <mxGeometry x="650" y="390" width="70" height="50" as="geometry" />
        </mxCell>
        <mxCell id="wAscsWPco3HNGKzt4rPp-93" value="" style="edgeStyle=none;orthogonalLoop=1;jettySize=auto;html=1;rounded=0;endArrow=none;endFill=0;dashed=1;" edge="1" parent="1">
          <mxGeometry width="100" relative="1" as="geometry">
            <mxPoint x="660" y="407" as="sourcePoint" />
            <mxPoint x="710" y="407" as="targetPoint" />
            <Array as="points" />
          </mxGeometry>
        </mxCell>
        <mxCell id="wAscsWPco3HNGKzt4rPp-100" style="edgeStyle=orthogonalEdgeStyle;rounded=0;orthogonalLoop=1;jettySize=auto;html=1;exitX=1;exitY=0.5;exitDx=0;exitDy=0;entryX=0;entryY=0.5;entryDx=0;entryDy=0;endArrow=none;endFill=0;" edge="1" parent="1" source="wAscsWPco3HNGKzt4rPp-97" target="wAscsWPco3HNGKzt4rPp-102">
          <mxGeometry relative="1" as="geometry">
            <mxPoint x="485" y="500" as="targetPoint" />
          </mxGeometry>
        </mxCell>
        <mxCell id="wAscsWPco3HNGKzt4rPp-97" value="" style="rhombus;whiteSpace=wrap;html=1;" vertex="1" parent="1">
          <mxGeometry x="330" y="480" width="40" height="40" as="geometry" />
        </mxCell>
        <mxCell id="wAscsWPco3HNGKzt4rPp-98" value="&lt;div&gt;&lt;u&gt;idCancha&lt;/u&gt;&lt;/div&gt;&lt;div&gt;nombre&lt;/div&gt;&lt;div&gt;direccion&lt;/div&gt;" style="ellipse;whiteSpace=wrap;html=1;" vertex="1" parent="1">
          <mxGeometry x="430" y="370" width="70" height="60" as="geometry" />
        </mxCell>
        <mxCell id="wAscsWPco3HNGKzt4rPp-101" value="" style="rounded=0;whiteSpace=wrap;html=1;" vertex="1" parent="1">
          <mxGeometry x="480" y="480" width="80" height="40" as="geometry" />
        </mxCell>
        <mxCell id="wAscsWPco3HNGKzt4rPp-102" value="Palcos" style="rounded=0;whiteSpace=wrap;html=1;" vertex="1" parent="1">
          <mxGeometry x="485" y="485" width="70" height="30" as="geometry" />
        </mxCell>
        <mxCell id="wAscsWPco3HNGKzt4rPp-103" value="0:N" style="text;html=1;align=center;verticalAlign=middle;whiteSpace=wrap;rounded=0;" vertex="1" parent="1">
          <mxGeometry x="350" y="400" width="30" height="20" as="geometry" />
        </mxCell>
        <mxCell id="wAscsWPco3HNGKzt4rPp-104" value="0:M" style="text;html=1;align=center;verticalAlign=middle;whiteSpace=wrap;rounded=0;" vertex="1" parent="1">
          <mxGeometry x="450" y="480" width="30" height="20" as="geometry" />
        </mxCell>
        <mxCell id="wAscsWPco3HNGKzt4rPp-105" value="&lt;div&gt;fechaDesde&lt;/div&gt;&lt;div&gt;fechaHasta&lt;/div&gt;" style="ellipse;whiteSpace=wrap;html=1;" vertex="1" parent="1">
          <mxGeometry x="270" y="460" width="70" height="60" as="geometry" />
        </mxCell>
        <mxCell id="wAscsWPco3HNGKzt4rPp-106" value="&lt;div&gt;idPalco&lt;/div&gt;&lt;div&gt;nombre&lt;/div&gt;&lt;div&gt;precio&lt;/div&gt;" style="ellipse;whiteSpace=wrap;html=1;" vertex="1" parent="1">
          <mxGeometry x="530" y="500" width="70" height="60" as="geometry" />
        </mxCell>
        <mxCell id="wAscsWPco3HNGKzt4rPp-107" value="" style="edgeStyle=none;orthogonalLoop=1;jettySize=auto;html=1;rounded=0;endArrow=none;endFill=0;dashed=1;" edge="1" parent="1">
          <mxGeometry width="100" relative="1" as="geometry">
            <mxPoint x="545" y="522" as="sourcePoint" />
            <mxPoint x="585" y="522" as="targetPoint" />
            <Array as="points" />
          </mxGeometry>
        </mxCell>
        <mxCell id="wAscsWPco3HNGKzt4rPp-108" value="Administrador" style="rounded=0;whiteSpace=wrap;html=1;" vertex="1" parent="1">
          <mxGeometry x="130" y="240" width="80" height="40" as="geometry" />
        </mxCell>
      </root>
    </mxGraphModel>
  </diagram>
</mxfile>
